<svg xmlns="http://www.w3.org/2000/svg" xmlns:xlink="http://www.w3.org/1999/xlink" width="100" height="100" viewBox="0 0 100 100"><rect width="100%" height="100%" fill="#f5f5f5"></rect><g transform="translate(50 50) scale(0.69 0.69) rotate(0) translate(-50 -50)" style="fill:#009688"><svg fill="#009688" xmlns="http://www.w3.org/2000/svg" xmlns:xlink="http://www.w3.org/1999/xlink" xml:space="preserve" version="1.1" style="shape-rendering:geometricPrecision;text-rendering:geometricPrecision;image-rendering:optimizeQuality;" viewBox="0 0 96 343" x="0px" y="0px" fill-rule="evenodd" clip-rule="evenodd"><defs><style type="text/css">
   
    .fil0 {fill:#009688;fill-rule:nonzero}
   
  </style></defs><g><path class="fil0" d="M36 0l23 0c19,0 34,16 33,35l-10 169c-1,18 -15,31 -33,31l-3 0c-17,0 -31,-13 -32,-31l-11 -169c-1,-19 14,-35 33,-35zm23 17l-23 0c-9,0 -16,7 -16,17l10 169c1,9 8,15 16,15l3 0c9,0 16,-6 16,-15l10 -169c1,-10 -6,-17 -16,-17z"></path><path class="fil0" d="M48 247c26,0 48,22 48,48 0,26 -22,48 -48,48 -27,0 -48,-22 -48,-48 0,-26 21,-48 48,-48zm0 17c-17,0 -31,14 -31,31 0,17 14,31 31,31 17,0 31,-14 31,-31 0,-17 -14,-31 -31,-31z"></path></g></svg></g></svg>